<svg width="144" height="144" viewBox="0 0 144 144" fill="none" xmlns="http://www.w3.org/2000/svg">
<g clip-path="url(#clip0_4_132)">
<g clip-path="url(#clip1_4_132)">
<path d="M406.956 375.653H313.044C300.082 375.653 289.565 365.144 289.565 352.174V258.262C289.565 245.292 300.082 234.783 313.044 234.783H406.956C419.917 234.783 430.435 245.292 430.435 258.262V352.174C430.435 365.144 419.917 375.653 406.956 375.653Z" fill="#575771"/>
<path d="M406.956 234.785H360V375.653H406.956C419.917 375.653 430.435 365.144 430.435 352.174V258.262C430.435 245.294 419.917 234.785 406.956 234.785Z" fill="#494965"/>
<path d="M696.52 469.567H23.4802C10.5187 469.567 0.00140381 459.058 0.00140381 446.088V352.176C0.00140381 339.206 10.5187 328.697 23.4802 328.697H696.521C709.483 328.697 720 339.206 720 352.176V446.088C719.999 459.058 709.481 469.567 696.52 469.567Z" fill="#BA4931"/>
<path d="M696.52 328.697H360V469.565H696.52C709.481 469.565 719.999 459.056 719.999 446.086V352.174C719.999 339.206 709.481 328.697 696.52 328.697Z" fill="#AD3D25"/>
<path d="M211.305 720H117.392C104.431 720 93.9136 709.491 93.9136 696.521V258.262C93.9136 245.292 104.431 234.783 117.392 234.783H211.305C224.266 234.783 234.783 245.292 234.783 258.262V696.521C234.783 709.491 224.266 720 211.305 720Z" fill="#C95E48"/>
<path d="M602.608 720H508.695C495.734 720 485.217 709.491 485.217 696.521V258.262C485.217 245.292 495.734 234.783 508.695 234.783H602.608C615.569 234.783 626.086 245.292 626.086 258.262V696.521C626.085 709.491 615.569 720 602.608 720Z" fill="#BA4931"/>
<path d="M626.085 281.741H93.9136V164.35C93.9136 151.384 104.425 140.871 117.392 140.871H602.608C615.573 140.871 626.087 151.383 626.087 164.35V281.741H626.085Z" fill="#BA4931"/>
<path d="M602.608 140.871H360V281.739H626.086V164.348C626.085 151.384 615.573 140.871 602.608 140.871Z" fill="#AD3D25"/>
<path d="M602.608 187.829H117.393C52.66 187.829 0.00158691 135.17 0.00158691 70.4377V23.4802C0.00158691 13.981 5.71799 5.42113 14.493 1.7916C23.268 -1.83793 33.355 0.163164 40.0811 6.88223C65.928 32.7291 100.288 46.9589 136.837 46.9589H583.166C619.713 46.9589 654.075 32.7277 679.922 6.88223C686.648 0.156132 696.751 -1.84496 705.51 1.7916C714.284 5.42113 720.001 13.981 720.001 23.4802V70.4363C719.999 135.172 667.342 187.829 602.608 187.829Z" fill="#575771"/>
<path d="M705.507 1.79157C696.748 -1.8464 686.645 0.156101 679.919 6.8822C654.071 32.7305 619.71 46.9589 583.163 46.9589H360V187.827H602.608C667.34 187.827 719.999 135.169 719.999 70.4363V23.4802C719.999 13.9809 714.282 5.4211 705.507 1.79157Z" fill="#494965"/>
</g>
</g>
<defs>
<clipPath id="clip0_4_132">
<rect width="144" height="144" fill="white"/>
</clipPath>
<clipPath id="clip1_4_132">
<rect width="144" height="144" fill="white"/>
</clipPath>
</defs>
</svg>
