<svg width="1712" height="531" viewBox="0 0 1712 531" fill="none" xmlns="http://www.w3.org/2000/svg">
<path d="M153.805 333.48C150.818 333.373 146.872 333.267 141.965 333.16C137.058 333.16 131.778 333.107 126.125 333C120.578 333 114.978 333 109.325 333C103.778 333 98.8717 333 94.605 333C94.7117 330.76 94.765 327.773 94.765 324.04C94.8717 320.307 94.925 316.04 94.925 311.24C94.925 306.44 94.925 301.267 94.925 295.72C94.925 290.067 94.925 284.253 94.925 278.28C94.925 270.173 94.8717 262.067 94.765 253.96C94.765 245.853 94.765 238.333 94.765 231.4C94.765 224.36 94.7117 218.28 94.605 213.16C94.605 208.04 94.605 204.413 94.605 202.28C98.765 202.28 103.352 202.28 108.365 202.28C113.378 202.28 118.498 202.28 123.725 202.28C128.952 202.173 134.072 202.067 139.085 201.96C144.098 201.853 148.792 201.747 153.165 201.64C153.165 203.027 153.165 204.253 153.165 205.32C153.272 206.28 153.325 207.667 153.325 209.48C153.325 210.76 153.272 212.307 153.165 214.12C153.165 215.827 153.112 217.64 153.005 219.56C153.005 221.373 152.952 223.24 152.845 225.16C152.845 226.973 152.792 228.68 152.685 230.28H120.525V248.84H148.525V272.68H120.525V290.6H153.165C153.272 293.053 153.378 295.56 153.485 298.12C153.592 300.68 153.645 303.56 153.645 306.76C153.752 309.96 153.805 313.747 153.805 318.12C153.805 322.387 153.805 327.507 153.805 333.48ZM220.051 202.12H247.251L221.331 333H181.651L155.731 202.12H183.091L201.491 301.64L220.051 202.12ZM310.055 333.48C307.068 333.373 303.122 333.267 298.215 333.16C293.308 333.16 288.028 333.107 282.375 333C276.828 333 271.228 333 265.575 333C260.028 333 255.122 333 250.855 333C250.962 330.76 251.015 327.773 251.015 324.04C251.122 320.307 251.175 316.04 251.175 311.24C251.175 306.44 251.175 301.267 251.175 295.72C251.175 290.067 251.175 284.253 251.175 278.28C251.175 270.173 251.122 262.067 251.015 253.96C251.015 245.853 251.015 238.333 251.015 231.4C251.015 224.36 250.962 218.28 250.855 213.16C250.855 208.04 250.855 204.413 250.855 202.28C255.015 202.28 259.602 202.28 264.615 202.28C269.628 202.28 274.748 202.28 279.975 202.28C285.202 202.173 290.322 202.067 295.335 201.96C300.348 201.853 305.042 201.747 309.415 201.64C309.415 203.027 309.415 204.253 309.415 205.32C309.522 206.28 309.575 207.667 309.575 209.48C309.575 210.76 309.522 212.307 309.415 214.12C309.415 215.827 309.362 217.64 309.255 219.56C309.255 221.373 309.202 223.24 309.095 225.16C309.095 226.973 309.042 228.68 308.935 230.28H276.775V248.84H304.775V272.68H276.775V290.6H309.415C309.522 293.053 309.628 295.56 309.735 298.12C309.842 300.68 309.895 303.56 309.895 306.76C310.002 309.96 310.055 313.747 310.055 318.12C310.055 322.387 310.055 327.507 310.055 333.48ZM380.941 202.12H403.821C403.501 223.88 403.341 245.693 403.341 267.56C403.341 289.427 403.501 311.24 403.821 333H372.941L339.021 254.76V333H317.101C317.315 322.013 317.475 311.133 317.581 300.36C317.688 289.48 317.741 278.547 317.741 267.56C317.741 256.573 317.688 245.693 317.581 234.92C317.475 224.04 317.315 213.107 317.101 202.12H349.421L380.941 280.2V202.12ZM473.53 231.72H455.13C454.917 241.213 454.757 250.867 454.65 260.68C454.543 270.387 454.49 280.893 454.49 292.2C454.49 299.453 454.49 305.32 454.49 309.8C454.49 314.173 454.49 317.8 454.49 320.68C454.49 323.453 454.49 325.747 454.49 327.56C454.597 329.267 454.65 331.08 454.65 333H427.77C427.877 328.307 427.983 323.453 428.09 318.44C428.197 313.32 428.25 307.827 428.25 301.96C428.357 295.987 428.41 289.587 428.41 282.76C428.517 275.827 428.57 268.2 428.57 259.88C428.57 253.8 428.57 248.52 428.57 244.04C428.57 239.56 428.517 235.453 428.41 231.72H410.01V202.12H473.53V231.72ZM521.578 200.2C537.471 200.2 549.204 205.853 556.778 217.16C564.351 228.467 568.138 244.893 568.138 266.44C568.138 288.307 564.404 305.16 556.938 317C549.578 328.84 537.791 334.76 521.578 334.76C513.578 334.76 506.644 333.267 500.778 330.28C494.911 327.187 490.058 322.76 486.218 317C482.378 311.133 479.551 303.987 477.738 295.56C475.924 287.027 475.018 277.32 475.018 266.44C475.018 244.573 478.804 228.093 486.378 217C493.951 205.8 505.684 200.2 521.578 200.2ZM521.578 293.48C524.991 293.48 527.978 292.733 530.538 291.24C533.204 289.64 535.391 287.507 537.098 284.84C538.804 282.067 540.084 278.813 540.938 275.08C541.791 271.24 542.218 267.027 542.218 262.44C542.218 257.853 541.791 253.64 540.938 249.8C540.084 245.853 538.804 242.44 537.098 239.56C535.391 236.68 533.204 234.44 530.538 232.84C527.978 231.24 524.991 230.44 521.578 230.44C518.164 230.44 515.178 231.293 512.618 233C510.164 234.6 508.031 236.84 506.218 239.72C504.511 242.6 503.231 246.013 502.378 249.96C501.524 253.8 501.098 257.96 501.098 262.44C501.098 267.027 501.524 271.24 502.378 275.08C503.231 278.813 504.511 282.067 506.218 284.84C508.031 287.507 510.164 289.64 512.618 291.24C515.178 292.733 518.164 293.48 521.578 293.48ZM573.001 234.6C573.001 227.773 574.281 222.173 576.841 217.8C579.508 213.32 582.815 209.8 586.761 207.24C590.815 204.573 595.241 202.76 600.041 201.8C604.948 200.733 609.641 200.2 614.121 200.2C615.401 200.2 617.001 200.253 618.921 200.36C620.948 200.467 623.028 200.627 625.161 200.84C627.401 201.053 629.641 201.373 631.881 201.8C634.228 202.12 636.415 202.6 638.441 203.24C638.655 206.013 638.815 208.627 638.921 211.08C639.028 213.427 639.081 216.147 639.081 219.24C639.081 222.333 639.028 225.32 638.921 228.2C638.815 230.973 638.655 233.64 638.441 236.2C637.588 236.093 636.468 235.933 635.081 235.72C633.801 235.507 632.415 235.347 630.921 235.24C629.535 235.133 628.095 235.027 626.601 234.92C625.215 234.813 623.881 234.76 622.601 234.76C617.481 234.76 613.748 235.56 611.401 237.16C609.055 238.76 607.881 240.947 607.881 243.72C607.881 245.32 608.255 246.867 609.001 248.36C609.748 249.747 610.708 251.08 611.881 252.36C613.161 253.64 614.548 254.867 616.041 256.04C617.641 257.213 619.241 258.333 620.841 259.4C623.401 261.213 625.961 263.24 628.521 265.48C631.188 267.613 633.588 270.227 635.721 273.32C637.855 276.307 639.615 279.827 641.001 283.88C642.388 287.827 643.081 292.413 643.081 297.64C643.081 304.467 641.908 310.227 639.561 314.92C637.215 319.613 634.175 323.453 630.441 326.44C626.815 329.32 622.708 331.453 618.121 332.84C613.641 334.12 609.161 334.76 604.681 334.76C602.655 334.76 600.148 334.6 597.161 334.28C594.281 334.067 591.348 333.693 588.361 333.16C585.375 332.733 582.548 332.2 579.881 331.56C577.215 330.813 575.081 329.96 573.481 329C573.055 327.08 572.681 325.107 572.361 323.08C572.148 321.053 572.041 318.813 572.041 316.36C572.041 314.653 572.095 312.573 572.201 310.12C572.415 307.667 572.628 305.16 572.841 302.6C573.055 300.04 573.268 297.587 573.481 295.24C573.801 292.893 574.068 290.92 574.281 289.32C575.455 289.96 577.161 290.707 579.401 291.56C581.641 292.307 584.041 293.053 586.601 293.8C589.268 294.547 591.935 295.187 594.601 295.72C597.268 296.253 599.615 296.52 601.641 296.52C605.055 296.52 607.615 295.827 609.321 294.44C611.028 292.947 611.881 290.973 611.881 288.52C611.881 285.853 610.921 283.507 609.001 281.48C607.081 279.347 604.681 277.267 601.801 275.24C598.921 273.213 595.775 271.08 592.361 268.84C589.055 266.493 585.961 263.773 583.081 260.68C580.201 257.587 577.801 253.96 575.881 249.8C573.961 245.533 573.001 240.467 573.001 234.6Z" fill="#eee"/>
<g clip-path="url(#clip0_4_24)">
<path d="M876.739 272.913H835.261C829.536 272.913 824.891 268.272 824.891 262.544V221.066C824.891 215.337 829.536 210.696 835.261 210.696H876.739C882.464 210.696 887.109 215.337 887.109 221.066V262.544C887.109 268.272 882.464 272.913 876.739 272.913Z" fill="#575771"/>
<path d="M876.739 210.697H856V272.913H876.739C882.464 272.913 887.109 268.272 887.109 262.544V221.066C887.109 215.338 882.464 210.697 876.739 210.697Z" fill="#494965"/>
<path d="M1004.63 314.392H707.37C701.646 314.392 697.001 309.75 697.001 304.022V262.544C697.001 256.816 701.646 252.174 707.37 252.174H1004.63C1010.35 252.174 1015 256.816 1015 262.544V304.022C1015 309.75 1010.35 314.392 1004.63 314.392Z" fill="#BA4931"/>
<path d="M1004.63 252.174H856V314.391H1004.63C1010.35 314.391 1015 309.75 1015 304.021V262.544C1015 256.816 1010.35 252.174 1004.63 252.174Z" fill="#AD3D25"/>
<path d="M790.326 425H748.848C743.124 425 738.479 420.359 738.479 414.63V221.066C738.479 215.337 743.124 210.696 748.848 210.696H790.326C796.051 210.696 800.696 215.337 800.696 221.066V414.63C800.696 420.359 796.051 425 790.326 425Z" fill="#C95E48"/>
<path d="M963.152 425H921.674C915.949 425 911.304 420.359 911.304 414.63V221.066C911.304 215.337 915.949 210.696 921.674 210.696H963.152C968.876 210.696 973.521 215.337 973.521 221.066V414.63C973.521 420.359 968.876 425 963.152 425Z" fill="#BA4931"/>
<path d="M973.521 231.436H738.479V179.588C738.479 173.861 743.121 169.218 748.848 169.218H963.152C968.878 169.218 973.521 173.861 973.521 179.588V231.436H973.521Z" fill="#BA4931"/>
<path d="M963.152 169.218H856V231.435H973.521V179.587C973.521 173.861 968.878 169.218 963.152 169.218Z" fill="#AD3D25"/>
<path d="M963.152 189.958H748.848C720.258 189.958 697.001 166.7 697.001 138.11V117.37C697.001 113.175 699.525 109.394 703.401 107.791C707.277 106.188 711.732 107.072 714.702 110.04C726.118 121.455 741.294 127.74 757.436 127.74H954.565C970.707 127.74 985.883 121.455 997.299 110.04C1000.27 107.069 1004.73 106.185 1008.6 107.791C1012.48 109.394 1015 113.175 1015 117.37V138.109C1015 166.701 991.743 189.958 963.152 189.958Z" fill="#575771"/>
<path d="M1008.6 107.791C1004.73 106.185 1000.27 107.069 997.298 110.04C985.881 121.456 970.705 127.74 954.564 127.74H856V189.957H963.152C991.742 189.957 1015 166.7 1015 138.109V117.37C1015 113.175 1012.47 109.394 1008.6 107.791Z" fill="#494965"/>
</g>
<path d="M1165.52 250.812L1141.27 338.42H1123.79L1101.04 253.256C1101.17 268.547 1101.42 283.963 1101.79 299.504C1102.29 315.045 1102.67 330.211 1102.92 345H1073.22C1073.47 332.091 1073.66 319.307 1073.78 306.648C1073.91 293.864 1073.97 281.017 1073.97 268.108C1073.97 255.199 1073.91 242.415 1073.78 229.756C1073.66 216.972 1073.47 204.125 1073.22 191.216H1113.45L1133.38 279.388L1155.75 191.216H1193.72C1193.35 216.784 1193.16 242.415 1193.16 268.108C1193.16 293.801 1193.35 319.432 1193.72 345H1163.64L1165.52 250.812ZM1198.29 345L1226.11 191.216H1272.55L1300.19 345H1268.41L1263.71 314.168H1234.76L1230.25 345H1198.29ZM1239.84 280.516H1258.64L1249.24 218.476L1239.84 280.516ZM1379.56 191.216H1406.44C1406.06 216.784 1405.88 242.415 1405.88 268.108C1405.88 293.801 1406.06 319.432 1406.44 345H1370.16L1330.3 253.068V345H1304.54C1304.8 332.091 1304.98 319.307 1305.11 306.648C1305.23 293.864 1305.3 281.017 1305.3 268.108C1305.3 255.199 1305.23 242.415 1305.11 229.756C1304.98 216.972 1304.8 204.125 1304.54 191.216H1342.52L1379.56 282.96V191.216ZM1517.86 259.46V344.812C1511.1 345.689 1505.08 346.253 1499.82 346.504C1494.68 346.88 1490.42 347.068 1487.03 347.068C1475.5 347.068 1465.16 345.251 1456.01 341.616C1446.86 337.981 1439.16 332.78 1432.89 326.012C1426.62 319.119 1421.8 310.847 1418.41 301.196C1415.15 291.42 1413.52 280.516 1413.52 268.484C1413.52 256.953 1415.09 246.363 1418.22 236.712C1421.36 226.936 1426 218.539 1432.14 211.52C1438.4 204.376 1446.17 198.861 1455.45 194.976C1464.85 190.965 1475.69 188.96 1487.97 188.96C1493.24 188.96 1497.75 189.336 1501.51 190.088C1505.39 190.715 1509.15 191.592 1512.79 192.72C1512.79 194.725 1512.79 196.919 1512.79 199.3C1512.91 201.681 1512.98 204.251 1512.98 207.008C1512.98 209.765 1512.91 212.711 1512.79 215.844C1512.79 218.977 1512.79 221.797 1512.79 224.304C1506.65 221.045 1499.63 219.416 1491.73 219.416C1484.84 219.416 1479.07 220.607 1474.44 222.988C1469.8 225.244 1466.04 228.189 1463.16 231.824C1460.4 235.459 1458.39 239.532 1457.14 244.044C1456.01 248.431 1455.45 252.692 1455.45 256.828C1455.45 261.591 1456.14 266.228 1457.52 270.74C1459.02 275.252 1461.21 279.263 1464.1 282.772C1466.98 286.281 1470.55 289.101 1474.81 291.232C1479.2 293.363 1484.34 294.428 1490.23 294.428C1490.86 294.428 1491.42 294.428 1491.92 294.428C1492.55 294.428 1493.17 294.365 1493.8 294.24V259.46H1517.86ZM1520.68 345L1548.51 191.216H1594.94L1622.58 345H1590.81L1586.11 314.168H1557.15L1552.64 345H1520.68ZM1562.23 280.516H1581.03L1571.63 218.476L1562.23 280.516Z" fill="#eee"/>
<defs>
<clipPath id="clip0_4_24">
<rect width="318" height="318" fill="white" transform="translate(697 107)"/>
</clipPath>
</defs>
</svg>
