<svg xmlns="http://www.w3.org/2000/svg" version="1.2" viewBox="0 0 1280 459" width="1280" height="459">
	<defs>
		<clipPath clipPathUnits="userSpaceOnUse" id="cp1">
			<path d="m0-129h1280v720h-1280z"/>
		</clipPath>
		<clipPath clipPathUnits="userSpaceOnUse" id="cp2">
			<path d="m445.77 13.72v426.57h-426.57v-426.57z"/>
		</clipPath>
	</defs>
	<style>
		.s0 { fill: #575771 } 
		.s1 { fill: #494965 } 
		.s2 { fill: #ba4931 } 
		.s3 { fill: #ad3d25 } 
		.s4 { fill: #c95e48 } 
		.s5 { fill: #eee } 
	</style>
	<g id="Clip-Path" clip-path="url(#cp1)">
		<g>
			<g id="Clip-Path" clip-path="url(#cp2)">
				<g>
					<path class="s0" d="m260.3 236.3h-55.6c-7.7 0-13.9-6.2-13.9-13.9v-55.7c0-7.7 6.2-13.9 13.9-13.9h55.6c7.7 0 13.9 6.2 13.9 13.9v55.7c0 7.7-6.2 13.9-13.9 13.9z"/>
					<path class="s1" d="m260.3 152.8h-27.8v83.5h27.8c7.7 0 13.9-6.2 13.9-13.9v-55.7c0-7.7-6.2-13.9-13.9-13.9z"/>
					<path class="s2" d="m431.9 291.9h-398.8c-7.7 0-13.9-6.2-13.9-13.9v-55.6c0-7.7 6.2-13.9 13.9-13.9h398.8c7.6 0 13.9 6.2 13.9 13.9v55.6c0 7.7-6.3 13.9-13.9 13.9z"/>
					<path class="s3" d="m431.9 208.5h-199.4v83.4h199.4c7.6 0 13.9-6.2 13.9-13.9v-55.6c0-7.7-6.3-13.9-13.9-13.9z"/>
					<path class="s4" d="m144.4 440.3h-55.6c-7.7 0-14-6.2-14-13.9v-259.7c0-7.7 6.3-13.9 14-13.9h55.6c7.7 0 13.9 6.2 13.9 13.9v259.7c0 7.7-6.2 13.9-13.9 13.9z"/>
					<path class="s2" d="m376.2 440.3h-55.6c-7.7 0-13.9-6.2-13.9-13.9v-259.7c0-7.7 6.2-13.9 13.9-13.9h55.6c7.7 0 13.9 6.2 13.9 13.9v259.7c0 7.7-6.2 13.9-13.9 13.9z"/>
					<path class="s2" d="m390.1 180.6h-315.3v-69.5c0-7.7 6.3-13.9 14-13.9h287.4c7.7 0 13.9 6.2 13.9 13.9v69.5z"/>
					<path class="s3" d="m376.2 97.2h-143.7v83.4h157.6v-69.5c0-7.7-6.2-13.9-13.9-13.9z"/>
					<path class="s0" d="m376.2 125h-287.4c-38.4 0-69.6-31.2-69.6-69.5v-27.9c0-5.6 3.4-10.7 8.6-12.8 5.2-2.2 11.2-1 15.1 3 15.4 15.3 35.7 23.7 57.4 23.7h264.4c21.7 0 42-8.4 57.3-23.7 4-4 10-5.2 15.2-3 5.2 2.1 8.6 7.2 8.6 12.8v27.9c0 38.3-31.2 69.5-69.6 69.5z"/>
					<path class="s1" d="m437.2 14.8c-5.2-2.2-11.2-1-15.2 3-15.3 15.3-35.6 23.7-57.3 23.7h-132.2v83.5h143.7c38.4 0 69.6-31.2 69.6-69.5v-27.9c0-5.6-3.4-10.7-8.6-12.8z"/>
				</g>
			</g>
			<path fill-rule="evenodd" class="s5" d="m602.5 205.5q-6-0.2-15.9-0.4-9.9 0-21.3-0.2-11.1 0-22.5 0-11.2 0-19.8 0 0.3-4.5 0.3-12 0.2-7.6 0.2-17.2 0-9.7 0-20.8 0-11.4 0-23.4 0-16.3-0.2-32.7 0-16.3 0-30.2 0-14.2-0.3-24.5 0-10.3 0-14.6 8.4 0 18.5 0 10.1 0 20.6 0 10.5-0.2 20.6-0.4 10.1-0.2 18.9-0.4 0 2.8 0 4.9 0.2 1.9 0.2 5.6 0 2.6-0.2 6.2 0 3.4-0.2 7.3 0 3.7-0.2 7.5 0 3.7-0.2 6.9h-43.2v24.9h37.6v32h-37.6v24h43.8q0.2 4.9 0.4 10.1 0.2 5.1 0.2 11.6 0.3 6.4 0.3 15.2 0 8.6 0 20.6zm88.8-176.2h36.5l-34.8 175.6h-53.2l-34.8-175.6h36.7l24.7 133.5zm120.8 176.2q-6-0.2-15.9-0.4-9.9 0-21.3-0.2-11.1 0-22.5 0-11.2 0-19.8 0 0.3-4.5 0.3-12 0.2-7.6 0.2-17.2 0-9.7 0-20.8 0-11.4 0-23.4 0-16.3-0.2-32.7 0-16.3 0-30.2 0-14.2-0.3-24.5 0-10.3 0-14.6 8.4 0 18.5 0 10.1 0 20.6 0 10.5-0.2 20.6-0.4 10.1-0.2 18.9-0.4 0 2.8 0 4.9 0.2 1.9 0.2 5.6 0 2.6-0.2 6.2 0 3.4-0.2 7.3 0 3.6-0.2 7.5 0 3.7-0.2 6.9h-43.2v24.9h37.6v32h-37.6v24h43.8q0.2 4.9 0.4 10.1 0.2 5.1 0.2 11.6 0.3 6.4 0.3 15.2 0 8.6 0 20.6zm95.1-176.2h30.6q-0.6 43.8-0.6 87.8 0 44 0.6 87.8h-41.4l-45.5-105v105h-29.4q0.4-22.1 0.7-43.8 0.2-21.9 0.2-44 0-22.1-0.2-43.8-0.3-21.9-0.7-44h43.4l42.3 104.7zm124.2 39.8h-24.7q-0.5 19.1-0.7 38.8-0.2 19.5-0.2 42.3 0 14.6 0 23.6 0 8.8 0 14.6 0 5.6 0 9.2 0.2 3.4 0.2 7.3h-36q0.2-9.4 0.4-19.5 0.2-10.3 0.2-22.1 0.2-12 0.2-25.8 0.2-13.9 0.2-30.7 0-12.2 0-21.2 0-9-0.2-16.5h-24.7v-39.8h85.3zm64.4-42.2q32 0 47.2 22.7 15.3 22.8 15.3 66.1 0 44-15.1 67.8-14.8 23.9-47.4 23.9-16.1 0-27.9-6-11.8-6.3-19.5-17.9-7.8-11.8-11.4-28.7-3.7-17.2-3.7-39.1 0-44 15.3-66.3 15.2-22.5 47.2-22.5zm0 125.1q6.9 0 12-3 5.4-3.2 8.8-8.6 3.5-5.6 5.2-13.1 1.7-7.7 1.7-16.9 0-9.3-1.7-17-1.7-7.9-5.2-13.7-3.4-5.8-8.8-9.1-5.1-3.2-12-3.2-6.9 0-12 3.5-5 3.2-8.6 9-3.4 5.8-5.2 13.7-1.7 7.7-1.7 16.8 0 9.2 1.7 16.9 1.8 7.5 5.2 13.1 3.6 5.4 8.6 8.6 5.1 3 12 3zm69-79q0-13.7 5.1-22.5 5.4-9 13.3-14.2 8.2-5.4 17.9-7.3 9.8-2.1 18.8-2.1 2.6 0 6.5 0.2 4.1 0.2 8.4 0.6 4.5 0.5 9 1.3 4.7 0.7 8.8 1.9 0.4 5.6 0.6 10.6 0.2 4.7 0.2 10.9 0 6.2-0.2 12-0.2 5.6-0.6 10.8-1.7-0.3-4.5-0.7-2.6-0.4-5.6-0.6-2.8-0.2-5.8-0.5-2.8-0.2-5.4-0.2-10.3 0-15 3.2-4.7 3.3-4.7 8.8 0 3.3 1.5 6.3 1.5 2.8 3.8 5.3 2.6 2.6 5.6 5 3.2 2.3 6.5 4.5 5.1 3.6 10.3 8.1 5.3 4.3 9.6 10.5 4.3 6.1 7.1 14.2 2.8 8 2.8 18.5 0 13.7-4.7 23.2-4.8 9.4-12.3 15.4-7.3 5.8-16.5 8.6-9 2.6-18 2.6-4.1 0-10.1-0.7-5.8-0.4-11.8-1.5-6-0.8-11.4-2.1-5.4-1.5-8.6-3.5-0.8-3.8-1.5-7.9-0.4-4.1-0.4-9 0-3.5 0.2-8.4 0.4-4.9 0.9-10.1 0.4-5.1 0.8-9.8 0.7-4.8 1.1-8 2.4 1.3 6.9 3 4.5 1.5 9.6 3 5.4 1.5 10.8 2.6 5.3 1.1 9.4 1.1 6.9 0 10.3-2.8 3.4-3 3.4-8 0-5.3-3.8-9.4-3.9-4.3-9.7-8.4-5.8-4.1-12.6-8.6-6.7-4.7-12.5-10.9-5.8-6.2-9.7-14.6-3.8-8.6-3.8-20.4z"/>
			<path fill-rule="evenodd" class="s5" d="m647.7 318.6l-32.5 117.6h-23.5l-30.5-114.3q0.2 30.8 1 62.1 1 31.2 1.5 61h-39.8q0.5-26 0.7-51.5 0.3-25.7 0.3-51.7 0-25.9-0.3-51.4-0.2-25.7-0.7-51.7h53.9l26.8 118.3 30-118.3h50.9q-0.7 51.4-0.7 103.1 0 51.7 0.7 103.2h-40.3zm43.9 126.3l37.3-206.3h62.3l37.1 206.3h-42.6l-6.3-41.3h-38.9l-6 41.3zm55.7-86.5h25.2l-12.6-83.2zm187.5-119.8h36q-0.7 51.5-0.7 103.2 0 51.7 0.7 103.1h-48.6l-53.5-123.3v123.3h-34.6q0.5-26 0.8-51.4 0.2-25.8 0.2-51.7 0-26-0.2-51.5-0.3-25.7-0.8-51.7h51l49.7 123.1zm185.5 91.5v114.5q-13.6 1.8-24.2 2.3-10.4 0.8-17.2 0.8-23.2 0-41.6-7.4-18.4-7.3-31-20.9-12.6-13.9-19.4-33.3-6.6-19.6-6.6-43.9 0-23.2 6.3-42.6 6.3-19.6 18.7-33.8 12.6-14.3 31.3-22.2 18.9-8 43.6-8 10.6 0 18.2 1.5 7.8 1.2 15.1 3.5 0 4 0 8.8 0.2 4.8 0.2 10.4 0 5.5-0.2 11.8 0 6.3 0 11.4-12.4-6.6-28.3-6.6-13.8 0-23.2 4.8-9.3 4.6-15.1 11.9-5.5 7.3-8.1 16.4-2.2 8.8-2.2 17.1 0 9.6 2.7 18.7 3.1 9 8.9 16.1 5.8 7.1 14.3 11.4 8.9 4.2 20.7 4.2 1.3 0 2.3 0 1.2 0 2.5-0.2v-46.7zm3.8 114.8l37.3-206.3h62.3l37.1 206.3h-42.6l-6.3-41.4h-38.9l-6 41.4zm55.7-86.5h25.2l-12.6-83.2z"/>
		</g>
	</g>
</svg>
